<svg xmlns="http://www.w3.org/2000/svg" viewBox="0 0 1200 400">
<rect width="1200" height="400" fill="#04342C"/>
<svg x="40" y="90" width="220" height="220" viewBox="0 0 240 240"><polygon points="32.46,145.16 33.97,143.94 35.65,142.46 37.52,140.73 39.57,138.78 41.78,136.64 44.14,134.37 46.63,131.98 49.23,129.53 51.91,127.05 54.66,124.58 57.45,122.17 60.26,119.85 63.06,117.67 65.82,115.67 68.52,113.89 71.12,112.37 73.58,111.14 75.85,110.24 77.89,109.67 79.61,109.42 81.28,109.50 83.08,110.02 85.01,110.96 87.03,112.31 89.12,114.03 91.24,116.06 93.39,118.34 95.55,120.81 97.72,123.41 99.91,126.10 102.11,128.80 104.33,131.48 106.57,134.07 108.84,136.53 111.17,138.79 113.56,140.82 116.07,142.54 118.72,143.86 121.52,144.67 124.41,144.85 127.19,144.35 129.80,143.31 132.26,141.83 134.62,140.00 136.92,137.87 139.17,135.50 141.39,132.93 143.58,130.22 145.76,127.42 147.92,124.59 150.07,121.78 152.21,119.04 154.33,116.44 156.43,114.03 158.50,111.86 160.52,109.99 162.47,108.48 164.33,107.36 166.08,106.64 167.87,106.31 169.79,106.37 171.78,106.73 173.84,107.41 175.96,108.36 178.14,109.59 180.35,111.06 182.59,112.75 184.85,114.62 187.14,116.65 189.44,118.81 191.76,121.08 194.08,123.42 196.42,125.80 198.76,128.20 201.11,130.59 203.46,132.94 205.82,135.23 208.19,137.42 210.57,139.49 212.89,141.35 215.11,138.65 212.83,136.74 210.59,134.72 208.34,132.56 206.07,130.29 203.80,127.94 201.52,125.54 199.23,123.11 196.93,120.68 194.62,118.28 192.31,115.94 189.99,113.68 187.66,111.53 185.32,109.51 182.96,107.66 180.58,106.00 178.18,104.56 175.74,103.37 173.26,102.47 170.72,101.89 168.13,101.69 165.43,102.00 162.71,102.91 160.11,104.31 157.63,106.10 155.22,108.20 152.88,110.56 150.57,113.11 148.30,115.80 146.05,118.59 143.83,121.41 141.62,124.21 139.43,126.93 137.25,129.52 135.10,131.92 132.99,134.07 130.91,135.91 128.90,137.37 126.98,138.42 125.20,139.01 123.59,139.15 122.09,138.89 120.54,138.29 118.84,137.31 117.03,135.95 115.12,134.24 113.14,132.22 111.11,129.94 109.05,127.47 106.96,124.85 104.84,122.15 102.69,119.43 100.52,116.73 98.30,114.11 96.04,111.62 93.73,109.31 91.33,107.24 88.84,105.45 86.21,104.02 83.39,103.02 80.39,102.58 77.27,102.77 74.19,103.45 71.12,104.54 68.05,105.97 64.98,107.67 61.91,109.61 58.85,111.75 55.81,114.03 52.80,116.44 49.84,118.92 46.95,121.43 44.15,123.94 41.45,126.41 38.89,128.79 36.47,131.04 34.22,133.13 32.18,135.00 30.35,136.61 28.79,137.91 27.54,138.84 30.00,142.00" fill="#9FE1CB"/><polygon points="33.97,124.95 35.84,123.79 37.73,122.45 39.72,120.93 41.82,119.25 44.06,117.44 46.41,115.52 48.88,113.54 51.43,111.53 54.05,109.53 56.72,107.58 59.42,105.73 62.11,104.01 64.77,102.46 67.35,101.12 69.83,100.02 72.15,99.18 74.28,98.61 76.19,98.30 77.88,98.22 79.31,98.33 80.96,98.86 83.02,100.06 85.35,101.91 87.86,104.33 90.48,107.23 93.19,110.53 95.95,114.14 98.74,117.98 101.57,121.98 104.41,126.06 107.27,130.15 110.14,134.17 113.02,138.07 115.93,141.78 118.88,145.23 121.90,148.37 125.06,151.14 128.46,153.44 132.26,155.09 136.35,155.74 140.21,155.24 143.61,153.89 146.59,151.96 149.27,149.60 151.75,146.88 154.08,143.87 156.32,140.61 158.48,137.16 160.59,133.58 162.64,129.93 164.65,126.27 166.61,122.66 168.54,119.18 170.42,115.90 172.24,112.89 173.99,110.24 175.64,108.02 177.10,106.31 178.27,105.17 179.33,104.43 180.54,103.95 181.74,103.68 182.98,103.60 184.31,103.73 185.72,104.07 187.21,104.63 188.78,105.40 190.40,106.35 192.06,107.47 193.76,108.74 195.49,110.11 197.25,111.58 199.03,113.10 200.83,114.66 202.66,116.22 204.53,117.76 206.43,119.24 208.37,120.66 210.37,121.96 212.19,123.00 215.81,117.00 214.05,115.87 212.48,114.71 210.89,113.42 209.26,112.00 207.62,110.50 205.95,108.93 204.25,107.32 202.53,105.70 200.78,104.09 198.99,102.51 197.15,101.00 195.27,99.57 193.31,98.25 191.27,97.08 189.13,96.08 186.86,95.31 184.47,94.81 181.94,94.65 179.33,94.89 176.67,95.57 173.83,96.93 171.09,98.99 168.64,101.46 166.36,104.26 164.16,107.32 162.02,110.61 159.91,114.06 157.80,117.62 155.71,121.23 153.61,124.82 151.51,128.32 149.42,131.67 147.33,134.79 145.26,137.60 143.22,140.03 141.26,141.99 139.42,143.41 137.81,144.22 136.54,144.46 135.65,144.26 134.88,143.78 133.69,142.95 132.01,141.56 129.98,139.57 127.72,137.02 125.31,134.01 122.79,130.61 120.20,126.92 117.54,123.00 114.84,118.94 112.10,114.81 109.32,110.69 106.51,106.64 103.68,102.73 100.80,99.02 97.87,95.57 94.86,92.45 91.72,89.71 88.38,87.41 84.69,85.67 80.71,84.65 76.78,84.33 72.91,84.59 69.13,85.30 65.45,86.39 61.88,87.77 58.40,89.39 55.01,91.19 51.72,93.13 48.53,95.17 45.45,97.26 42.49,99.35 39.68,101.42 37.02,103.41 34.54,105.28 32.26,106.99 30.21,108.48 28.44,109.70 27.00,110.59 26.03,111.05 30.00,118.00" fill="#E1F5EE"/><polygon points="31.97,171.48 33.61,170.52 35.45,169.33 37.49,167.93 39.73,166.36 42.15,164.63 44.73,162.79 47.46,160.86 50.29,158.88 53.22,156.88 56.22,154.91 59.25,152.98 62.30,151.14 65.34,149.42 68.34,147.86 71.26,146.48 74.07,145.33 76.73,144.43 79.20,143.80 81.45,143.45 83.39,143.38 85.24,143.64 87.18,144.29 89.21,145.34 91.29,146.76 93.41,148.51 95.55,150.54 97.70,152.79 99.85,155.21 102.01,157.75 104.17,160.36 106.35,162.99 108.53,165.59 110.74,168.11 112.98,170.49 115.26,172.71 117.62,174.69 120.08,176.38 122.68,177.71 125.42,178.58 128.24,178.86 130.98,178.55 133.59,177.75 136.08,176.55 138.49,175.03 140.83,173.23 143.13,171.20 145.40,168.99 147.64,166.65 149.86,164.21 152.06,161.73 154.24,159.24 156.41,156.80 158.55,154.44 160.66,152.23 162.74,150.20 164.77,148.41 166.75,146.89 168.64,145.69 170.44,144.83 172.23,144.30 174.11,144.07 176.01,144.05 177.93,144.25 179.87,144.64 181.85,145.22 183.84,145.98 185.86,146.88 187.90,147.92 189.95,149.07 192.01,150.32 194.09,151.65 196.17,153.03 198.27,154.45 200.37,155.88 202.49,157.30 204.62,158.70 206.76,160.05 208.92,161.33 211.10,162.52 213.21,163.56 214.79,160.44 212.71,159.35 210.70,158.18 208.67,156.92 206.64,155.57 204.60,154.17 202.55,152.72 200.49,151.25 198.42,149.78 196.34,148.34 194.24,146.93 192.12,145.58 189.99,144.31 187.83,143.14 185.65,142.09 183.44,141.18 181.18,140.44 178.89,139.90 176.56,139.57 174.18,139.50 171.77,139.70 169.25,140.30 166.72,141.36 164.27,142.79 161.88,144.52 159.54,146.48 157.23,148.64 154.95,150.94 152.68,153.35 150.43,155.81 148.19,158.27 145.96,160.70 143.75,163.05 141.56,165.26 139.39,167.29 137.26,169.09 135.18,170.61 133.16,171.80 131.23,172.63 129.43,173.08 127.76,173.14 126.20,172.83 124.61,172.18 122.91,171.18 121.10,169.82 119.20,168.14 117.25,166.16 115.26,163.95 113.23,161.55 111.17,159.01 109.08,156.39 106.95,153.73 104.79,151.09 102.58,148.52 100.32,146.07 98.00,143.77 95.59,141.69 93.08,139.86 90.43,138.36 87.61,137.24 84.61,136.62 81.48,136.52 78.32,136.87 75.12,137.57 71.89,138.57 68.62,139.83 65.33,141.30 62.04,142.95 58.75,144.73 55.49,146.63 52.28,148.59 49.14,150.60 46.09,152.61 43.16,154.59 40.36,156.50 37.72,158.31 35.28,159.98 33.05,161.48 31.07,162.76 29.38,163.79 28.03,164.52 30.00,168.00" fill="#1D9E75"/><circle cx="82.00" cy="90.00" r="10.00" fill="#04342C"/><circle cx="82.00" cy="90.00" r="6.80" fill="#9FE1CB"/></svg>
<text x="310" y="200" font-family="Cormorant Garamond" font-weight="600" font-size="70" letter-spacing="8" fill="#E1F5EE">OPHÉLIE BLONDEL</text>
<text x="312" y="256" font-family="DM Sans" font-weight="400" font-size="28" letter-spacing="5" fill="#9FE1CB">Kiné · Nerf vague</text>
</svg>